<mxfile host="app.diagrams.net" agent="Mozilla/5.0 (Windows NT 10.0; Win64; x64; rv:137.0) Gecko/20100101 Firefox/137.0" version="26.2.13">
  <diagram name="Page-1" id="6133507b-19e7-1e82-6fc7-422aa6c4b21f">
    <mxGraphModel dx="1031" dy="695" grid="1" gridSize="10" guides="1" tooltips="1" connect="1" arrows="1" fold="1" page="1" pageScale="1" pageWidth="1100" pageHeight="850" background="none" math="0" shadow="0">
      <root>
        <mxCell id="0" />
        <mxCell id="1" parent="0" />
        <mxCell id="78961159f06e98e8-17" value="List_item" style="swimlane;html=1;fontStyle=1;align=center;verticalAlign=top;childLayout=stackLayout;horizontal=1;startSize=26;horizontalStack=0;resizeParent=1;resizeLast=0;collapsible=1;marginBottom=0;swimlaneFillColor=#ffffff;rounded=0;shadow=0;comic=0;labelBackgroundColor=none;strokeWidth=1;fontFamily=Verdana;fontSize=12" parent="1" vertex="1">
          <mxGeometry x="35" y="132" width="365" height="450" as="geometry" />
        </mxCell>
        <mxCell id="78961159f06e98e8-23" value="&lt;div&gt;- Sting: name&lt;/div&gt;&lt;div&gt;- int: prio&lt;/div&gt;&lt;div&gt;- Date: checked_date&lt;/div&gt;&lt;div&gt;- bool: checked&lt;/div&gt;&lt;div&gt;- float: duaration_time_in_hours&lt;/div&gt;&lt;div&gt;- Date: expiratio_date &lt;br&gt;&lt;/div&gt;&lt;div&gt;&lt;div&gt;- String: description&lt;/div&gt;&lt;div&gt;- Date: created_date&lt;/div&gt;&lt;div&gt;&lt;br&gt;&lt;br&gt;&lt;/div&gt;&lt;br&gt;&lt;/div&gt;" style="text;html=1;strokeColor=none;fillColor=none;align=left;verticalAlign=top;spacingLeft=4;spacingRight=4;whiteSpace=wrap;overflow=hidden;rotatable=0;points=[[0,0.5],[1,0.5]];portConstraint=eastwest;" parent="78961159f06e98e8-17" vertex="1">
          <mxGeometry y="26" width="365" height="134" as="geometry" />
        </mxCell>
        <mxCell id="78961159f06e98e8-19" value="" style="line;html=1;strokeWidth=1;fillColor=none;align=left;verticalAlign=middle;spacingTop=-1;spacingLeft=3;spacingRight=3;rotatable=0;labelPosition=right;points=[];portConstraint=eastwest;" parent="78961159f06e98e8-17" vertex="1">
          <mxGeometry y="160" width="365" height="8" as="geometry" />
        </mxCell>
        <mxCell id="78961159f06e98e8-27" value="&lt;div&gt;+ List_item(data)&lt;/div&gt;&lt;div&gt;+ get_name(): String&lt;/div&gt;&lt;div&gt;+ get_description(): String&lt;/div&gt;&lt;div&gt;+ get_expiration_date (): Date&lt;/div&gt;&lt;div&gt;+ get_duaration_time(): float&lt;/div&gt;&lt;div&gt;+ get_checked(): bool&lt;/div&gt;&lt;div&gt;+ get_checked_date(): Date&lt;/div&gt;&lt;div&gt;+ get_created_date(): Date&lt;/div&gt;&lt;div&gt;+ get_prio(): int&lt;/div&gt;&lt;div&gt;&lt;div&gt;+ set_name(String s)&lt;/div&gt;&lt;div&gt;+ set_description(String s)&lt;/div&gt;&lt;div&gt;+ set_expiration_date(Date d)&lt;/div&gt;&lt;div&gt;+ set_duaration_time(float time)&lt;/div&gt;&lt;div&gt;+ set_checked(bool c)&lt;/div&gt;&lt;div&gt;+ set_checked_date(Date d)&lt;/div&gt;&lt;div&gt;+ set_prio(int prio)&lt;/div&gt;&lt;div&gt;+ set_created_date(Date d)&lt;/div&gt;&lt;/div&gt;&lt;div&gt;+ to_string(): String&lt;/div&gt;&lt;div&gt;-&amp;nbsp; calculate_time(char actual_unit, float time, char target_unit):float&lt;/div&gt;" style="text;html=1;strokeColor=none;fillColor=none;align=left;verticalAlign=top;spacingLeft=4;spacingRight=4;whiteSpace=wrap;overflow=hidden;rotatable=0;points=[[0,0.5],[1,0.5]];portConstraint=eastwest;" parent="78961159f06e98e8-17" vertex="1">
          <mxGeometry y="168" width="365" height="282" as="geometry" />
        </mxCell>
        <mxCell id="EUb8MZZmtagCrDp-SzSF-11" value="List" style="swimlane;html=1;fontStyle=1;align=center;verticalAlign=top;childLayout=stackLayout;horizontal=1;startSize=26;horizontalStack=0;resizeParent=1;resizeLast=0;collapsible=1;marginBottom=0;swimlaneFillColor=#ffffff;rounded=0;shadow=0;comic=0;labelBackgroundColor=none;strokeWidth=1;fontFamily=Verdana;fontSize=12;" vertex="1" parent="1">
          <mxGeometry x="520" y="210" width="200" height="190" as="geometry" />
        </mxCell>
        <mxCell id="EUb8MZZmtagCrDp-SzSF-12" value="&lt;div&gt;- List_item[]: items&lt;/div&gt;&lt;div&gt;- list_length: int&lt;/div&gt;&lt;div&gt;&lt;br&gt;&lt;/div&gt;" style="text;html=1;strokeColor=none;fillColor=none;align=left;verticalAlign=top;spacingLeft=4;spacingRight=4;whiteSpace=wrap;overflow=hidden;rotatable=0;points=[[0,0.5],[1,0.5]];portConstraint=eastwest;" vertex="1" parent="EUb8MZZmtagCrDp-SzSF-11">
          <mxGeometry y="26" width="200" height="54" as="geometry" />
        </mxCell>
        <mxCell id="EUb8MZZmtagCrDp-SzSF-13" value="" style="line;html=1;strokeWidth=1;fillColor=none;align=left;verticalAlign=middle;spacingTop=-1;spacingLeft=3;spacingRight=3;rotatable=0;labelPosition=right;points=[];portConstraint=eastwest;" vertex="1" parent="EUb8MZZmtagCrDp-SzSF-11">
          <mxGeometry y="80" width="200" height="8" as="geometry" />
        </mxCell>
        <mxCell id="EUb8MZZmtagCrDp-SzSF-14" value="&lt;div&gt;+ List()&lt;/div&gt;&lt;div&gt;+ add(List_item i):bool&lt;/div&gt;&lt;div&gt;+ remove(List_item i):bool&lt;/div&gt;&lt;div&gt;+ contains(List_item i):bool&lt;/div&gt;&lt;div&gt;+ order(int prio_order):bool&lt;/div&gt;&lt;div&gt;+ dump_list()&lt;/div&gt;" style="text;html=1;strokeColor=none;fillColor=none;align=left;verticalAlign=top;spacingLeft=4;spacingRight=4;whiteSpace=wrap;overflow=hidden;rotatable=0;points=[[0,0.5],[1,0.5]];portConstraint=eastwest;" vertex="1" parent="EUb8MZZmtagCrDp-SzSF-11">
          <mxGeometry y="88" width="200" height="102" as="geometry" />
        </mxCell>
        <mxCell id="EUb8MZZmtagCrDp-SzSF-15" value="App_data" style="swimlane;html=1;fontStyle=1;align=center;verticalAlign=top;childLayout=stackLayout;horizontal=1;startSize=26;horizontalStack=0;resizeParent=1;resizeLast=0;collapsible=1;marginBottom=0;swimlaneFillColor=#ffffff;rounded=0;shadow=0;comic=0;labelBackgroundColor=none;strokeWidth=1;fontFamily=Verdana;fontSize=12;" vertex="1" parent="1">
          <mxGeometry x="800" y="210" width="200" height="220" as="geometry" />
        </mxCell>
        <mxCell id="EUb8MZZmtagCrDp-SzSF-16" value="&lt;div&gt;- List: checked_list&lt;/div&gt;&lt;div&gt;- List unchecked_list&lt;/div&gt;&lt;div&gt;- int: current_prio&lt;/div&gt;&lt;div&gt;- int: language&lt;/div&gt;&lt;div&gt;- int: color&lt;/div&gt;" style="text;html=1;strokeColor=none;fillColor=none;align=left;verticalAlign=top;spacingLeft=4;spacingRight=4;whiteSpace=wrap;overflow=hidden;rotatable=0;points=[[0,0.5],[1,0.5]];portConstraint=eastwest;" vertex="1" parent="EUb8MZZmtagCrDp-SzSF-15">
          <mxGeometry y="26" width="200" height="84" as="geometry" />
        </mxCell>
        <mxCell id="EUb8MZZmtagCrDp-SzSF-17" value="" style="line;html=1;strokeWidth=1;fillColor=none;align=left;verticalAlign=middle;spacingTop=-1;spacingLeft=3;spacingRight=3;rotatable=0;labelPosition=right;points=[];portConstraint=eastwest;" vertex="1" parent="EUb8MZZmtagCrDp-SzSF-15">
          <mxGeometry y="110" width="200" height="8" as="geometry" />
        </mxCell>
        <mxCell id="EUb8MZZmtagCrDp-SzSF-19" value="&lt;div&gt;+ get_current_prio(): int&lt;/div&gt;&lt;div&gt;+ get_language(): int&lt;/div&gt;&lt;div&gt;+ get_color(): int &lt;br&gt;&lt;/div&gt;&lt;div&gt;&lt;div&gt;+ set_current_prio(int p)&lt;/div&gt;&lt;div&gt;+ set_language(int l)&lt;/div&gt;&lt;div&gt;+ set_color(int c) &lt;/div&gt;&lt;br&gt;&lt;/div&gt;" style="text;strokeColor=none;fillColor=none;align=left;verticalAlign=top;spacingLeft=4;spacingRight=4;overflow=hidden;rotatable=0;points=[[0,0.5],[1,0.5]];portConstraint=eastwest;whiteSpace=wrap;html=1;" vertex="1" parent="EUb8MZZmtagCrDp-SzSF-15">
          <mxGeometry y="118" width="200" height="102" as="geometry" />
        </mxCell>
        <mxCell id="EUb8MZZmtagCrDp-SzSF-20" value="1" style="endArrow=open;html=1;endSize=12;startArrow=diamondThin;startSize=14;startFill=1;edgeStyle=orthogonalEdgeStyle;align=left;verticalAlign=bottom;rounded=0;exitX=-0.008;exitY=-0.018;exitDx=0;exitDy=0;exitPerimeter=0;entryX=1.017;entryY=1.031;entryDx=0;entryDy=0;entryPerimeter=0;" edge="1" parent="1" source="EUb8MZZmtagCrDp-SzSF-14" target="78961159f06e98e8-23">
          <mxGeometry x="-1" y="3" relative="1" as="geometry">
            <mxPoint x="450" y="360" as="sourcePoint" />
            <mxPoint x="610" y="360" as="targetPoint" />
          </mxGeometry>
        </mxCell>
        <mxCell id="EUb8MZZmtagCrDp-SzSF-21" value="0..*" style="edgeLabel;html=1;align=center;verticalAlign=middle;resizable=0;points=[];" vertex="1" connectable="0" parent="EUb8MZZmtagCrDp-SzSF-20">
          <mxGeometry x="0.5307" y="1" relative="1" as="geometry">
            <mxPoint x="37" y="-20" as="offset" />
          </mxGeometry>
        </mxCell>
      </root>
    </mxGraphModel>
  </diagram>
</mxfile>
